<svg id="Layer_1" data-name="Layer 1" xmlns="http://www.w3.org/2000/svg" xmlns:xlink="http://www.w3.org/1999/xlink" viewBox="0 0 860 300"><defs><style>.cls-1,.cls-2{fill-rule:evenodd;}.cls-1{fill:url(#linear-gradient);}.cls-2{fill:#0051cc;}</style><linearGradient id="linear-gradient" x1="2.64" y1="137.34" x2="852.77" y2="161.2" gradientUnits="userSpaceOnUse"><stop offset="0" stop-color="#c92a8d"/><stop offset="0.19" stop-color="#c92a8d"/><stop offset="0.89" stop-color="#174cc5"/><stop offset="1" stop-color="#0051cc"/></linearGradient></defs><path class="cls-1" d="M407.78,193.22l.24,0h.17a43.67,43.67,0,0,0,6.41.47c.89,0,1.78,0,2.66-.08h0a43.38,43.38,0,0,0,25-9.75l6.07-6,44.92-44.65,39.88-39.62c.29-.3.59-.59.88-.88l.41-.41h0a80.35,80.35,0,1,1,58.43,138.08v.18c-.88,0-1.77,0-2.66,0A80.22,80.22,0,0,1,548.33,219v26.12c0,10.64-7.47,32.63-32.63,32.63h-6.08V187.43l37-36.33a43.65,43.65,0,0,0,36.73,42.12l.25,0h.17a43.63,43.63,0,0,0,6.4.47c.9,0,1.78,0,2.66-.08h0a43.63,43.63,0,0,0-2.59-87.19c-10.51,0-20.76,3.06-27.69,9.92L496.79,181.5l-7.31,7.27,0,.07L468.24,210h0a80,80,0,0,1-51,20.42v.18c-.88,0-1.77,0-2.66,0A80.22,80.22,0,0,1,372.74,219v26.12c0,10.64-7.47,32.63-32.63,32.63h-5.78V151.5h0c0-.46,0-.92,0-1.37a80.36,80.36,0,0,1,154.49-31l-30.51,30a43.64,43.64,0,1,0-50.51,44.15Zm-165-124.57a81,81,0,1,1-81.05,81,81.05,81.05,0,0,1,81.05-81Zm0,37.26a43.79,43.79,0,1,0,43.79,43.79,43.79,43.79,0,0,0-43.79-43.79Zm603.86,41.23c0,.9,0,1.8,0,2.7,0,1.51,0,3-.13,4.49v47.45c0,10.72-7.53,32.88-32.88,32.88h-5.84v-16a81.06,81.06,0,1,1,38.37-71.45l.43-.05Zm-81.44-41.23A43.79,43.79,0,1,0,809,149.7a43.78,43.78,0,0,0-43.79-43.79ZM7,182.84V66.7H7V40.39C7,29.66,14.51,7.51,39.87,7.51H46V86.88a81.26,81.26,0,0,1,106.23,77.26c0,1.4,0,2.79-.1,4.17h0v18l0,0v26.32c0,10.73-7.53,32.89-32.89,32.89h-6.12c0-27.07.13-54.33.13-81.3A43.06,43.06,0,0,0,46,128.59v54.25h0v29.8c0,10.73-7.53,32.89-32.89,32.89H7c0-16.28,0-42.45.08-62.69Z"/><path class="cls-2" d="M836.59,50.48A13.5,13.5,0,1,1,823.09,64a13.51,13.51,0,0,1,13.5-13.5Zm-6.94,21.39h2.09v-7h2.42a6.1,6.1,0,0,1,1.16.08,3.42,3.42,0,0,1,.95.41,4.76,4.76,0,0,1,1.06,1.06,23.86,23.86,0,0,1,1.5,2.18l2.09,3.28h2.61l-2.73-4.3a10.65,10.65,0,0,0-1.73-2.1,4.92,4.92,0,0,0-1.26-.78,5.51,5.51,0,0,0,3.36-1.47,4,4,0,0,0,1.08-2.83A4.43,4.43,0,0,0,841.6,58a3.48,3.48,0,0,0-1.75-1.5,9.37,9.37,0,0,0-3.21-.43h-7V71.87Zm2.09-8.81h4.48a6.64,6.64,0,0,0,2.24-.3,2.32,2.32,0,0,0,1.21-.95,2.53,2.53,0,0,0,.42-1.41,2.36,2.36,0,0,0-.8-1.85,3.8,3.8,0,0,0-2.56-.72h-5v5.23Zm4.85-11A11.94,11.94,0,1,0,848.52,64,11.95,11.95,0,0,0,836.59,52Z"/></svg>